<svg xmlns="http://www.w3.org/2000/svg" id="Icons" width="40.126" height="39.29" viewBox="0 0 40.126 39.29">
    <defs>
        <style>
            .cls-1{fill:#fff;fill-rule:evenodd}
        </style>
    </defs>
    <g id="Black">
        <path id="Github" d="M720.061 560a20.155 20.155 0 0 0-6.34 39.255c1 .185 1.369-.436 1.369-.971 0-.478-.018-1.745-.028-3.425-5.581 1.217-6.758-2.7-6.758-2.7a5.326 5.326 0 0 0-2.227-2.946c-1.822-1.25.137-1.225.137-1.225a4.213 4.213 0 0 1 3.072 2.076c1.792 3.078 4.7 2.189 5.84 1.673a4.307 4.307 0 0 1 1.274-2.693c-4.455-.509-9.139-2.236-9.139-9.955a7.8 7.8 0 0 1 2.066-5.405 7.267 7.267 0 0 1 .2-5.331s1.685-.541 5.516 2.065a18.926 18.926 0 0 1 10.047 0c3.829-2.606 5.511-2.065 5.511-2.065a7.257 7.257 0 0 1 .2 5.331 7.788 7.788 0 0 1 2.063 5.405c0 7.738-4.691 9.44-9.16 9.94a4.818 4.818 0 0 1 1.362 3.73c0 2.693-.025 4.864-.025 5.525 0 .539.361 1.166 1.379.968A20.156 20.156 0 0 0 720.061 560" class="cls-1" transform="translate(-700 -560)"/>
    </g>
</svg>
