<svg xmlns="http://www.w3.org/2000/svg" width="36.782" height="33.438" viewBox="0 0 36.782 33.438">
    <defs>
        <style>
            .cls-1{fill:#fff;fill-rule:evenodd}
        </style>
    </defs>
    <g id="Icons">
        <g id="Black">
            <path id="LinkedIn" d="M738.782 298.438h-8.13v-11.755c0-3.076-1.271-5.177-4.068-5.177a4.1 4.1 0 0 0-3.881 2.784 5.161 5.161 0 0 0-.175 1.857v12.292h-8.054s.1-20.823 0-22.715h8.054v3.565c.475-1.559 3.049-3.784 7.156-3.784 5.1 0 9.1 3.267 9.1 10.3v12.63zm-32.452-25.557h-.052a3.963 3.963 0 0 1-4.278-3.937c0-2.244 1.732-3.944 4.38-3.944a3.981 3.981 0 0 1 4.323 3.937c0 2.2-1.678 3.944-4.373 3.944zm-3.4 2.841h7.17v22.715h-7.169v-22.714z" class="cls-1" transform="translate(-702 -265)"/>
        </g>
    </g>
</svg>
