<svg xmlns="http://www.w3.org/2000/svg" id="Icons" width="40.126" height="33.438" viewBox="0 0 40.126 33.438">
    <defs>
        <style>
            .cls-1{fill:#fff;fill-rule:evenodd}
        </style>
    </defs>
    <g id="Black">
        <path id="Twitter" d="M340.126 167.958a16.071 16.071 0 0 1-4.727 1.328 8.424 8.424 0 0 0 3.621-4.668 16.234 16.234 0 0 1-5.231 2.046A8.117 8.117 0 0 0 327.78 164a8.338 8.338 0 0 0-8.229 8.441 8.61 8.61 0 0 0 .212 1.922 23.176 23.176 0 0 1-16.97-8.823 8.6 8.6 0 0 0-1.113 4.248 8.5 8.5 0 0 0 3.662 7.026 8.083 8.083 0 0 1-3.731-1.053v.1a8.392 8.392 0 0 0 6.607 8.277 7.848 7.848 0 0 1-2.169.3 8.03 8.03 0 0 1-1.55-.15 8.264 8.264 0 0 0 7.69 5.859 16.255 16.255 0 0 1-10.224 3.616 16.553 16.553 0 0 1-1.965-.116 22.924 22.924 0 0 0 12.62 3.789c15.143 0 23.423-12.861 23.423-24.017 0-.367-.008-.734-.022-1.093a16.891 16.891 0 0 0 4.105-4.37" class="cls-1" transform="translate(-300 -164)"/>
    </g>
</svg>
